<?xml version="1.0" encoding="UTF-8"?>
<svg xmlns="http://www.w3.org/2000/svg" version="1.1" width="300" height="300" viewBox="0 0 300 300"><rect x="0" y="0" width="300" height="300" fill="#ffffff"/><g transform="scale(14.286)"><g transform="translate(0,0)"><path fill-rule="evenodd" d="M8 0L8 2L9 2L9 4L8 4L8 9L7 9L7 8L5 8L5 9L3 9L3 8L0 8L0 9L3 9L3 10L4 10L4 11L5 11L5 10L6 10L6 11L7 11L7 12L6 12L6 13L8 13L8 14L11 14L11 17L10 17L10 16L9 16L9 15L8 15L8 16L9 16L9 17L10 17L10 18L11 18L11 17L15 17L15 18L13 18L13 19L12 19L12 20L13 20L13 21L21 21L21 18L19 18L19 19L20 19L20 20L13 20L13 19L18 19L18 18L17 18L17 17L18 17L18 16L17 16L17 17L16 17L16 16L15 16L15 14L12 14L12 13L8 13L8 12L10 12L10 11L11 11L11 9L13 9L13 11L12 11L12 12L13 12L13 13L14 13L14 12L15 12L15 13L16 13L16 14L17 14L17 15L18 15L18 14L19 14L19 15L20 15L20 17L21 17L21 15L20 15L20 13L21 13L21 12L20 12L20 11L21 11L21 10L18 10L18 9L17 9L17 8L12 8L12 7L13 7L13 6L12 6L12 7L11 7L11 5L10 5L10 7L9 7L9 4L10 4L10 3L11 3L11 4L12 4L12 5L13 5L13 3L12 3L12 2L13 2L13 0ZM10 1L10 2L11 2L11 1ZM19 8L19 9L21 9L21 8ZM6 9L6 10L7 10L7 11L9 11L9 10L10 10L10 9L9 9L9 10L7 10L7 9ZM14 9L14 10L15 10L15 11L16 11L16 13L19 13L19 11L16 11L16 10L17 10L17 9ZM0 10L0 12L1 12L1 13L4 13L4 12L2 12L2 10ZM13 11L13 12L14 12L14 11ZM12 15L12 16L14 16L14 15ZM8 18L8 21L11 21L11 19L10 19L10 20L9 20L9 18ZM0 0L0 7L7 7L7 0ZM1 1L1 6L6 6L6 1ZM2 2L2 5L5 5L5 2ZM14 0L14 7L21 7L21 0ZM15 1L15 6L20 6L20 1ZM16 2L16 5L19 5L19 2ZM0 14L0 21L7 21L7 14ZM1 15L1 20L6 20L6 15ZM2 16L2 19L5 19L5 16Z" fill="#000000"/></g></g></svg>
